<svg xmlns="http://www.w3.org/2000/svg" xmlns:xlink="http://www.w3.org/1999/xlink" contentStyleType="text/css" height="298px" preserveAspectRatio="none" style="width:349px;height:298px;background:#FFFFFF;" version="1.1" viewBox="0 0 349 298" width="349px" zoomAndPan="magnify"><defs/><g><line style="stroke:#181818;stroke-width:0.5;stroke-dasharray:5.0,5.0;" x1="27" x2="27" y1="81.2969" y2="217.8281"/><line style="stroke:#181818;stroke-width:0.5;stroke-dasharray:5.0,5.0;" x1="205" x2="205" y1="81.2969" y2="217.8281"/><line style="stroke:#181818;stroke-width:0.5;stroke-dasharray:5.0,5.0;" x1="314.5" x2="314.5" y1="81.2969" y2="217.8281"/><text fill="#000000" font-family="sans-serif" font-size="14" lengthAdjust="spacing" textLength="39" x="5" y="77.9951">Client</text><ellipse cx="27.5" cy="13.5" fill="#E2E2F0" rx="8" ry="8" style="stroke:#181818;stroke-width:0.5;"/><path d="M27.5,21.5 L27.5,48.5 M14.5,29.5 L40.5,29.5 M27.5,48.5 L14.5,63.5 M27.5,48.5 L40.5,63.5 " fill="none" style="stroke:#181818;stroke-width:0.5;"/><text fill="#000000" font-family="sans-serif" font-size="14" lengthAdjust="spacing" textLength="39" x="5" y="229.8232">Client</text><ellipse cx="27.5" cy="241.625" fill="#E2E2F0" rx="8" ry="8" style="stroke:#181818;stroke-width:0.5;"/><path d="M27.5,249.625 L27.5,276.625 M14.5,257.625 L40.5,257.625 M27.5,276.625 L14.5,291.625 M27.5,276.625 L40.5,291.625 " fill="none" style="stroke:#181818;stroke-width:0.5;"/><rect fill="#E2E2F0" height="30.2969" rx="2.5" ry="2.5" style="stroke:#181818;stroke-width:0.5;" width="151" x="130" y="50"/><text fill="#000000" font-family="sans-serif" font-size="14" lengthAdjust="spacing" textLength="137" x="137" y="69.9951">Activity Data Service</text><rect fill="#E2E2F0" height="30.2969" rx="2.5" ry="2.5" style="stroke:#181818;stroke-width:0.5;" width="151" x="130" y="216.8281"/><text fill="#000000" font-family="sans-serif" font-size="14" lengthAdjust="spacing" textLength="137" x="137" y="236.8232">Activity Data Service</text><text fill="#000000" font-family="sans-serif" font-size="14" lengthAdjust="spacing" textLength="18" x="302.5" y="77.9951">db</text><path d="M296.5,29 C296.5,19 314.5,19 314.5,19 C314.5,19 332.5,19 332.5,29 L332.5,55 C332.5,65 314.5,65 314.5,65 C314.5,65 296.5,65 296.5,55 L296.5,29 " fill="#E2E2F0" style="stroke:#181818;stroke-width:1.5;"/><path d="M296.5,29 C296.5,39 314.5,39 314.5,39 C314.5,39 332.5,39 332.5,29 " fill="none" style="stroke:#181818;stroke-width:1.5;"/><text fill="#000000" font-family="sans-serif" font-size="14" lengthAdjust="spacing" textLength="18" x="302.5" y="229.8232">db</text><path d="M296.5,243.125 C296.5,233.125 314.5,233.125 314.5,233.125 C314.5,233.125 332.5,233.125 332.5,243.125 L332.5,269.125 C332.5,279.125 314.5,279.125 314.5,279.125 C314.5,279.125 296.5,279.125 296.5,269.125 L296.5,243.125 " fill="#E2E2F0" style="stroke:#181818;stroke-width:1.5;"/><path d="M296.5,243.125 C296.5,253.125 314.5,253.125 314.5,253.125 C314.5,253.125 332.5,253.125 332.5,243.125 " fill="none" style="stroke:#181818;stroke-width:1.5;"/><polygon fill="#181818" points="193.5,108.4297,203.5,112.4297,193.5,116.4297,197.5,112.4297" style="stroke:#181818;stroke-width:1.0;"/><line style="stroke:#181818;stroke-width:1.0;" x1="27.5" x2="199.5" y1="112.4297" y2="112.4297"/><text fill="#000000" font-family="sans-serif" font-size="13" lengthAdjust="spacing" textLength="154" x="34.5" y="107.3638">GET activity(type, lastId)</text><polygon fill="#181818" points="302.5,137.5625,312.5,141.5625,302.5,145.5625,306.5,141.5625" style="stroke:#181818;stroke-width:1.0;"/><line style="stroke:#181818;stroke-width:1.0;" x1="205.5" x2="308.5" y1="141.5625" y2="141.5625"/><text fill="#000000" font-family="sans-serif" font-size="13" lengthAdjust="spacing" textLength="85" x="212.5" y="136.4966">query activity</text><polygon fill="#181818" points="216.5,166.6953,206.5,170.6953,216.5,174.6953,212.5,170.6953" style="stroke:#181818;stroke-width:1.0;"/><line style="stroke:#181818;stroke-width:1.0;stroke-dasharray:2.0,2.0;" x1="210.5" x2="313.5" y1="170.6953" y2="170.6953"/><text fill="#000000" font-family="sans-serif" font-size="13" lengthAdjust="spacing" textLength="76" x="222.5" y="165.6294">activityData</text><polygon fill="#181818" points="38.5,195.8281,28.5,199.8281,38.5,203.8281,34.5,199.8281" style="stroke:#181818;stroke-width:1.0;"/><line style="stroke:#181818;stroke-width:1.0;stroke-dasharray:2.0,2.0;" x1="32.5" x2="204.5" y1="199.8281" y2="199.8281"/><text fill="#000000" font-family="sans-serif" font-size="13" lengthAdjust="spacing" textLength="76" x="44.5" y="194.7622">activityData</text><!--SRC=[LOv12W8n34NtESLdLWhE1Lm8eYAkzG9fcqLW66kR6UZjhOnLPXVoNru-Uticd0QLqIXoClKQUJHqHsywgnMSsHXtIRDwwS2vpHHgu3WBWYDQ5EWFBSOUryi3_DLih4JPOU1ijx2b1bK-k8g-9adb1rFTzIjLIpvb_iSLMVwkWJS0]--></g></svg>