<svg xmlns="http://www.w3.org/2000/svg" xmlns:xlink="http://www.w3.org/1999/xlink" contentStyleType="text/css" height="356px" preserveAspectRatio="none" style="width:445px;height:356px;background:#FFFFFF;" version="1.1" viewBox="0 0 445 356" width="445px" zoomAndPan="magnify"><defs/><g><line style="stroke:#181818;stroke-width:0.5;stroke-dasharray:5.0,5.0;" x1="30" x2="30" y1="81.2969" y2="276.0938"/><line style="stroke:#181818;stroke-width:0.5;stroke-dasharray:5.0,5.0;" x1="99" x2="99" y1="81.2969" y2="276.0938"/><line style="stroke:#181818;stroke-width:0.5;stroke-dasharray:5.0,5.0;" x1="211" x2="211" y1="81.2969" y2="276.0938"/><line style="stroke:#181818;stroke-width:0.5;stroke-dasharray:5.0,5.0;" x1="325" x2="325" y1="81.2969" y2="276.0938"/><line style="stroke:#181818;stroke-width:0.5;stroke-dasharray:5.0,5.0;" x1="410" x2="410" y1="81.2969" y2="276.0938"/><text fill="#000000" font-family="sans-serif" font-size="14" lengthAdjust="spacing" textLength="45" x="5" y="77.9951">Sharer</text><ellipse cx="30.5" cy="13.5" fill="#E2E2F0" rx="8" ry="8" style="stroke:#181818;stroke-width:0.5;"/><path d="M30.5,21.5 L30.5,48.5 M17.5,29.5 L43.5,29.5 M30.5,48.5 L17.5,63.5 M30.5,48.5 L43.5,63.5 " fill="none" style="stroke:#181818;stroke-width:0.5;"/><text fill="#000000" font-family="sans-serif" font-size="14" lengthAdjust="spacing" textLength="45" x="5" y="288.0889">Sharer</text><ellipse cx="30.5" cy="299.8906" fill="#E2E2F0" rx="8" ry="8" style="stroke:#181818;stroke-width:0.5;"/><path d="M30.5,307.8906 L30.5,334.8906 M17.5,315.8906 L43.5,315.8906 M30.5,334.8906 L17.5,349.8906 M30.5,334.8906 L43.5,349.8906 " fill="none" style="stroke:#181818;stroke-width:0.5;"/><rect fill="#E2E2F0" height="30.2969" rx="2.5" ry="2.5" style="stroke:#181818;stroke-width:0.5;" width="67" x="66" y="50"/><text fill="#000000" font-family="sans-serif" font-size="14" lengthAdjust="spacing" textLength="53" x="73" y="69.9951">Discord</text><rect fill="#E2E2F0" height="30.2969" rx="2.5" ry="2.5" style="stroke:#181818;stroke-width:0.5;" width="67" x="66" y="275.0938"/><text fill="#000000" font-family="sans-serif" font-size="14" lengthAdjust="spacing" textLength="53" x="73" y="295.0889">Discord</text><rect fill="#E2E2F0" height="30.2969" rx="2.5" ry="2.5" style="stroke:#181818;stroke-width:0.5;" width="95" x="164" y="50"/><text fill="#000000" font-family="sans-serif" font-size="14" lengthAdjust="spacing" textLength="81" x="171" y="69.9951">Discord Bot</text><rect fill="#E2E2F0" height="30.2969" rx="2.5" ry="2.5" style="stroke:#181818;stroke-width:0.5;" width="95" x="164" y="275.0938"/><text fill="#000000" font-family="sans-serif" font-size="14" lengthAdjust="spacing" textLength="81" x="171" y="295.0889">Discord Bot</text><rect fill="#E2E2F0" height="30.2969" rx="2.5" ry="2.5" style="stroke:#181818;stroke-width:0.5;" width="113" x="269" y="50"/><text fill="#000000" font-family="sans-serif" font-size="14" lengthAdjust="spacing" textLength="99" x="276" y="69.9951">Other Website</text><rect fill="#E2E2F0" height="30.2969" rx="2.5" ry="2.5" style="stroke:#181818;stroke-width:0.5;" width="113" x="269" y="275.0938"/><text fill="#000000" font-family="sans-serif" font-size="14" lengthAdjust="spacing" textLength="99" x="276" y="295.0889">Other Website</text><text fill="#000000" font-family="sans-serif" font-size="14" lengthAdjust="spacing" textLength="18" x="398" y="77.9951">db</text><path d="M392,29 C392,19 410,19 410,19 C410,19 428,19 428,29 L428,55 C428,65 410,65 410,65 C410,65 392,65 392,55 L392,29 " fill="#E2E2F0" style="stroke:#181818;stroke-width:1.5;"/><path d="M392,29 C392,39 410,39 410,39 C410,39 428,39 428,29 " fill="none" style="stroke:#181818;stroke-width:1.5;"/><text fill="#000000" font-family="sans-serif" font-size="14" lengthAdjust="spacing" textLength="18" x="398" y="288.0889">db</text><path d="M392,301.3906 C392,291.3906 410,291.3906 410,291.3906 C410,291.3906 428,291.3906 428,301.3906 L428,327.3906 C428,337.3906 410,337.3906 410,337.3906 C410,337.3906 392,337.3906 392,327.3906 L392,301.3906 " fill="#E2E2F0" style="stroke:#181818;stroke-width:1.5;"/><path d="M392,301.3906 C392,311.3906 410,311.3906 410,311.3906 C410,311.3906 428,311.3906 428,301.3906 " fill="none" style="stroke:#181818;stroke-width:1.5;"/><polygon fill="#181818" points="87.5,108.4297,97.5,112.4297,87.5,116.4297,91.5,112.4297" style="stroke:#181818;stroke-width:1.0;"/><line style="stroke:#181818;stroke-width:1.0;" x1="30.5" x2="93.5" y1="112.4297" y2="112.4297"/><text fill="#000000" font-family="sans-serif" font-size="13" lengthAdjust="spacing" textLength="28" x="37.5" y="107.3638">msg</text><polygon fill="#181818" points="110.5,137.5625,100.5,141.5625,110.5,145.5625,106.5,141.5625" style="stroke:#181818;stroke-width:1.0;"/><line style="stroke:#181818;stroke-width:1.0;" x1="104.5" x2="210.5" y1="141.5625" y2="141.5625"/><text fill="#000000" font-family="sans-serif" font-size="13" lengthAdjust="spacing" textLength="88" x="116.5" y="136.4966">getMessage()</text><polygon fill="#181818" points="199.5,166.6953,209.5,170.6953,199.5,174.6953,203.5,170.6953" style="stroke:#181818;stroke-width:1.0;"/><line style="stroke:#181818;stroke-width:1.0;" x1="99.5" x2="205.5" y1="170.6953" y2="170.6953"/><text fill="#000000" font-family="sans-serif" font-size="13" lengthAdjust="spacing" textLength="59" x="106.5" y="165.6294">msgData</text><polygon fill="#181818" points="313.5,195.8281,323.5,199.8281,313.5,203.8281,317.5,199.8281" style="stroke:#181818;stroke-width:1.0;"/><line style="stroke:#181818;stroke-width:1.0;" x1="211.5" x2="319.5" y1="199.8281" y2="199.8281"/><text fill="#000000" font-family="sans-serif" font-size="13" lengthAdjust="spacing" textLength="82" x="218.5" y="194.7622">getContent()</text><polygon fill="#181818" points="222.5,224.9609,212.5,228.9609,222.5,232.9609,218.5,228.9609" style="stroke:#181818;stroke-width:1.0;"/><line style="stroke:#181818;stroke-width:1.0;stroke-dasharray:2.0,2.0;" x1="216.5" x2="324.5" y1="228.9609" y2="228.9609"/><text fill="#000000" font-family="sans-serif" font-size="13" lengthAdjust="spacing" textLength="80" x="228.5" y="223.895">contentData</text><polygon fill="#181818" points="398,254.0938,408,258.0938,398,262.0938,402,258.0938" style="stroke:#181818;stroke-width:1.0;"/><line style="stroke:#181818;stroke-width:1.0;" x1="211.5" x2="404" y1="258.0938" y2="258.0938"/><text fill="#000000" font-family="sans-serif" font-size="13" lengthAdjust="spacing" textLength="67" x="218.5" y="253.0278">insertData</text><!--SRC=[LOqn3i8m34NtdCBg14ClmC00NH430xEJM6a6aihs_KNQ98XCjfx_yqUdcU6r8XER3LcZYnicXIMAo-m7DZK8jwmJeEnp33nr9OOtMObAHwJjngEYHI7mrfZQ1_Erry05FX9C-JV2GFeW4GnqEfkEIs8F7ifItdQjLLNjdfDIqg9rFFyyLs__hhU5noJ41_u2]--></g></svg>