<svg xmlns="http://www.w3.org/2000/svg" xmlns:xlink="http://www.w3.org/1999/xlink" contentStyleType="text/css" height="261px" preserveAspectRatio="none" style="width:360px;height:261px;background:#FFFFFF;" version="1.1" viewBox="0 0 360 261" width="360px" zoomAndPan="magnify"><defs/><g><!--entity Client--><g id="elem_Client"><rect fill="#F1F1F1" height="36.2969" rx="2.5" ry="2.5" style="stroke:#181818;stroke-width:0.5;" width="59" x="174" y="7"/><text fill="#000000" font-family="sans-serif" font-size="14" lengthAdjust="spacing" textLength="39" x="184" y="29.9951">Client</text></g><!--entity Server--><g id="elem_Server"><rect fill="#F1F1F1" height="36.2969" rx="2.5" ry="2.5" style="stroke:#181818;stroke-width:0.5;" width="64" x="171.5" y="103.3"/><text fill="#000000" font-family="sans-serif" font-size="14" lengthAdjust="spacing" textLength="44" x="181.5" y="126.2951">Server</text></g><!--entity OtherWebsite--><g id="elem_OtherWebsite"><rect fill="#F1F1F1" height="36.2969" rx="2.5" ry="2.5" style="stroke:#181818;stroke-width:0.5;" width="119" x="7" y="204.09"/><text fill="#000000" font-family="sans-serif" font-size="14" lengthAdjust="spacing" textLength="99" x="17" y="227.0851">Other Website</text></g><!--entity DB--><g id="elem_DB"><path d="M160.5,209.59 C160.5,199.59 203.5,199.59 203.5,199.59 C203.5,199.59 246.5,199.59 246.5,209.59 L246.5,234.8869 C246.5,244.8869 203.5,244.8869 203.5,244.8869 C203.5,244.8869 160.5,244.8869 160.5,234.8869 L160.5,209.59 " fill="#F1F1F1" style="stroke:#181818;stroke-width:0.5;"/><path d="M160.5,209.59 C160.5,219.59 203.5,219.59 203.5,219.59 C203.5,219.59 246.5,219.59 246.5,209.59 " fill="none" style="stroke:#181818;stroke-width:0.5;"/><text fill="#000000" font-family="sans-serif" font-size="14" lengthAdjust="spacing" textLength="66" x="170.5" y="236.5851">Database</text></g><!--entity Discord--><g id="elem_Discord"><rect fill="#F1F1F1" height="36.2969" rx="2.5" ry="2.5" style="stroke:#181818;stroke-width:0.5;" width="73" x="281" y="204.09"/><text fill="#000000" font-family="sans-serif" font-size="14" lengthAdjust="spacing" textLength="53" x="291" y="227.0851">Discord</text></g><!--link Client to Server--><g id="link_Client_Server"><path codeLine="18" d="M203.5,43.44 C203.5,60.35 203.5,79.96 203.5,96.94 " fill="none" id="Client-to-Server" style="stroke:#181818;stroke-width:1.0;"/><polygon fill="#181818" points="203.5,102.94,207.5,93.94,203.5,97.94,199.5,93.94,203.5,102.94" style="stroke:#181818;stroke-width:1.0;"/></g><!--link Server to OtherWebsite--><g id="link_Server_OtherWebsite"><path codeLine="19" d="M179.32,139.88 C154.43,157.83 120.7363,182.1301 95.7663,200.1401 " fill="none" id="Server-to-OtherWebsite" style="stroke:#181818;stroke-width:1.0;"/><polygon fill="#181818" points="90.9,203.65,100.5393,201.6294,94.9552,200.7251,95.8595,195.141,90.9,203.65" style="stroke:#181818;stroke-width:1.0;"/></g><!--link Server to DB--><g id="link_Server_DB"><path codeLine="20" d="M203.5,139.65 C203.5,156.24 203.5,175.4 203.5,193.39 " fill="none" id="Server-to-DB" style="stroke:#181818;stroke-width:1.0;"/><polygon fill="#181818" points="203.5,199.39,207.5,190.39,203.5,194.39,199.5,190.39,203.5,199.39" style="stroke:#181818;stroke-width:1.0;"/></g><!--link Server to Discord--><g id="link_Server_Discord"><path codeLine="21" d="M223.62,139.88 C244.33,157.83 271.8859,181.7103 292.6659,199.7203 " fill="none" id="Server-to-Discord" style="stroke:#181818;stroke-width:1.0;"/><polygon fill="#181818" points="297.2,203.65,293.0187,194.7328,293.4216,200.3753,287.7791,200.7782,297.2,203.65" style="stroke:#181818;stroke-width:1.0;"/></g><!--SRC=[POx12i8m38RlVOeupti5mQt3YoYeuBbROnSe5TeWYFZkpgQ7ZTt-VFb8_et51mM4IzVUzgV3iOEj9pUoY_XMAkB09ZYFKBMUC7059e54-AZlmhXYV67CXiILSUPnedVi4p5cCPC2HBU6JM_IPEkIigYRrJLDQNX6Asl9ufH-TRqhHLJfyoVpZtEkcyKaztu0]--></g></svg>